<svg xmlns="http://www.w3.org/2000/svg" xmlns:xlink="http://www.w3.org/1999/xlink" viewBox="-16950.094 39.594 128.088 125.969">
  <defs>
    <style>
      .cls-1 {
        fill: url(#radial-gradient);
      }

      .cls-2 {
        fill: url(#radial-gradient-2);
      }

      .cls-3 {
        fill: url(#radial-gradient-3);
      }
    </style>
    <radialGradient id="radial-gradient" cx="82.269" cy="116.561" r="13.388" gradientUnits="userSpaceOnUse">
      <stop offset="0" stop-color="#fffbcc"/>
      <stop offset="0.117" stop-color="#fbeeb7"/>
      <stop offset="0.349" stop-color="#efd88c"/>
      <stop offset="0.371" stop-color="#eed688"/>
      <stop offset="0.685" stop-color="#ebbb10"/>
      <stop offset="1" stop-color="#c3922e"/>
    </radialGradient>
    <radialGradient id="radial-gradient-2" cx="139.059" cy="128.333" r="20.473" xlink:href="#radial-gradient"/>
    <radialGradient id="radial-gradient-3" cx="102.424" cy="74.782" r="22.948" xlink:href="#radial-gradient"/>
  </defs>
  <g id="Group_823" data-name="Group 823" transform="translate(-16950.094 39.594)">
    <g id="Group_821" data-name="Group 821" transform="translate(0 115.425)">
      <path id="Path_2372" data-name="Path 2372" d="M62.105,235.56h1.362v1.513a5.139,5.139,0,0,1-2.018.353,3.176,3.176,0,0,1-3.38-3.38,3.064,3.064,0,0,1,3.077-3.33,2.813,2.813,0,0,1,2.27.908l1.413-1.413A4.689,4.689,0,0,0,61.1,228.8a5.02,5.02,0,0,0-5.2,5.247c0,3.027,2.22,5.247,5.549,5.247a6.549,6.549,0,0,0,3.935-1.211v-4.439H60.239Z" transform="translate(-27.7 -228.8)"/>
      <path id="Path_2373" data-name="Path 2373" d="M6.155,235.56H7.567v1.513a5.139,5.139,0,0,1-2.018.353,3.176,3.176,0,0,1-3.38-3.38,3.064,3.064,0,0,1,3.077-3.33,2.813,2.813,0,0,1,2.27.908l1.413-1.413A4.689,4.689,0,0,0,5.2,228.8,5.02,5.02,0,0,0,0,234.047c0,3.027,2.22,5.247,5.549,5.247a6.549,6.549,0,0,0,3.935-1.211v-4.439H4.339Z" transform="translate(0 -228.8)"/>
      <path id="Path_2374" data-name="Path 2374" d="M93.59,229,89.1,239.342h2.018l.5-1.16.706-1.766.757-1.766a17.433,17.433,0,0,0,.605-1.816,17.434,17.434,0,0,0,.605,1.816l.353.858-1.766,1.766h2.522l.4.958.5,1.16h2.22L93.792,229Z" transform="translate(-44.151 -228.899)"/>
      <path id="Path_2375" data-name="Path 2375" d="M124.693,233.993c-.2.4-.454,1.059-.454,1.059a5.523,5.523,0,0,0-.454-1.059l-2.775-4.893H119.8l3.884,6.861v3.38h1.11v-3.43l3.784-6.81h-1.11Z" transform="translate(-59.363 -228.949)"/>
      <path id="Path_2376" data-name="Path 2376" d="M153.959,234.9h4.591v-.958h-4.591v-3.885h5.146V229.1H152.9v10.241h6.407v-.959h-5.348Z" transform="translate(-75.765 -228.949)"/>
      <path id="Path_2377" data-name="Path 2377" d="M184.638,228.9,180.4,239.242h1.059l1.16-2.976h4.187l1.211,2.976h1.16L184.839,228.9Zm1.715,6.155.1.3h-3.43l.1-.3,1.211-2.976c.2-.5.4-1.211.4-1.211a10.389,10.389,0,0,0,.4,1.211Z" transform="translate(-89.392 -228.85)"/>
      <path id="Path_2378" data-name="Path 2378" d="M215.337,233.591l-.807-.353c-1.16-.5-1.614-.908-1.614-1.816a1.448,1.448,0,0,1,1.614-1.463,2.183,2.183,0,0,1,1.917,1.11l.858-.555A3.025,3.025,0,0,0,214.53,229a2.467,2.467,0,0,0-2.674,2.472c0,1.413.807,2.119,2.27,2.775l.807.353c1.261.555,1.917,1.11,1.917,2.119a1.889,1.889,0,0,1-2.119,1.766,2.727,2.727,0,0,1-2.623-1.614l-.908.5a3.77,3.77,0,0,0,3.582,2.068c1.816,0,3.178-1.009,3.178-2.724C217.91,235.155,217.052,234.348,215.337,233.591Z" transform="translate(-104.654 -228.899)"/>
      <path id="Path_2379" data-name="Path 2379" d="M238.6,229.1v.959h3.33v9.282h1.059v-9.282h3.33V229.1Z" transform="translate(-118.231 -228.949)"/>
      <path id="Path_2380" data-name="Path 2380" d="M36.2,239.341h.05l2.068-2.068V229.1H36.2Z" transform="translate(-17.938 -228.949)"/>
    </g>
    <g id="Group_822" data-name="Group 822" transform="translate(34.406 52.416)">
      <path id="Path_2381" data-name="Path 2381" class="cls-1" d="M77.583,107.734h3.481L77.18,103.9H68.2l25.375,25.325L96.35,126.5Z" transform="translate(-68.2 -103.9)"/>
      <path id="Path_2382" data-name="Path 2382" class="cls-2" d="M149.383,104.1l-3.834,3.885-22.348,22.3v18.464l3.884,3.834V131.9l27.8-27.8Z" transform="translate(-95.454 -103.999)"/>
    </g>
    <path id="Path_2383" data-name="Path 2383" class="cls-3" d="M103.911,98.471l20.734-20.734H92.055l3.884,3.834h19.322l-11.351,11.4-11.4-11.4-3.884-3.834L85.7,74.76,103.911,56.6,119.1,71.784l5.5.05L103.911,51.1,80.2,74.76l2.976,2.976h-.05l3.884,3.834Z" transform="translate(-39.741 -25.321)"/>
    <path id="Path_2384" data-name="Path 2384" d="M75.562,0,23.5,52.062l52.113,52.062,52.062-52.062Zm41.821,52.062L75.613,93.833,33.842,52.062,75.613,10.291Z" transform="translate(-11.645)"/>
  </g>
</svg>
